<svg width="150" height="60" viewBox="0 0 150 60" fill="none" xmlns="http://www.w3.org/2000/svg">
<g clip-path="url(#clip0)">
<path d="M19.3551 13.0957C8.79758 13.0957 0 17.5747 0 31.0897C0 41.7965 5.91581 48.5385 19.6272 48.5385C35.7665 48.5385 36.801 37.9057 36.801 37.9057H28.9809C28.9809 37.9057 27.3044 43.631 19.1504 43.631C12.5091 43.631 7.73265 39.144 7.73265 32.8554H37.6193V28.9086C37.6193 22.6869 33.6701 13.0957 19.3551 13.0957ZM19.082 18.1395C25.4037 18.1395 29.7134 22.0128 29.7134 27.8181H7.90539C7.90539 21.6548 13.5311 18.1395 19.082 18.1395Z" fill="#E53238"/>
<path d="M37.6138 0.00878906V41.7517C37.6138 44.121 37.4445 47.4481 37.4445 47.4481H44.9031C44.9031 47.4481 45.1712 45.0588 45.1712 42.8747C45.1712 42.8747 48.8563 48.641 58.8765 48.641C69.428 48.641 76.5955 41.3138 76.5955 30.8173C76.5955 21.0518 70.0122 13.1977 58.8935 13.1977C48.4818 13.1977 45.2466 18.8207 45.2466 18.8207V0.00878906H37.6138ZM56.9683 18.3608C64.1338 18.3608 68.6906 23.6798 68.6906 30.8173C68.6906 38.4711 63.4279 43.4779 57.0198 43.4779C49.372 43.4779 45.2466 37.5053 45.2466 30.8852C45.2466 24.7164 48.9481 18.3608 56.9683 18.3608Z" fill="#0064D2"/>
<path d="M95.1328 13.0957C79.2501 13.0957 78.2316 21.7931 78.2316 23.1833H86.137C86.137 23.1833 86.5514 18.1055 94.5876 18.1055C99.8094 18.1055 103.856 20.4963 103.856 25.0917V26.7275H94.5876C82.2831 26.7275 75.7782 30.3278 75.7782 37.6335C75.7782 44.8229 81.7884 48.7347 89.9109 48.7347C100.981 48.7347 104.546 42.6174 104.546 42.6174C104.546 45.0506 104.734 47.4484 104.734 47.4484H111.761C111.761 47.4484 111.489 44.4764 111.489 42.5749V26.1398C111.489 15.3632 102.798 13.0957 95.1328 13.0957ZM103.856 31.635V33.8161C103.856 36.6608 102.101 43.7334 91.7677 43.7334C86.1095 43.7334 83.6836 40.9092 83.6836 37.633C83.6836 31.6735 91.8531 31.635 103.856 31.635Z" fill="#F5AF02"/>
<path d="M107.232 14.46H116.125L128.889 40.0349L141.623 14.46H149.68L126.485 59.9913H118.034L124.727 47.2987L107.232 14.46Z" fill="#86B817"/>
</g>
<defs>
<clipPath id="clip0">
<rect width="149.68" height="60" fill="white"/>
</clipPath>
</defs>
</svg>
