<svg width="133" height="68" viewBox="0 0 133 68" fill="none" xmlns="http://www.w3.org/2000/svg">
<path d="M24.8316 27.4188V13.0038C24.8316 12.4697 24.8817 12.1493 25.7345 12.1493H37.2171C39.2231 12.1493 40.3262 13.9648 41.1288 17.3815L41.7806 20.1049H43.736C44.0866 12.3637 44.3872 9 44.3872 9C44.3872 9 39.4734 9.5871 36.565 9.5871H21.8738L14 9.32004V11.5625L16.6582 12.0963C18.5135 12.4703 18.9639 12.8969 19.1155 14.7128C19.1155 14.7128 19.2663 20.0516 19.2663 28.8613C19.2663 37.6698 19.1155 42.9559 19.1155 42.9559C19.1155 44.5574 18.5135 45.1445 16.6582 45.5194L14 46.0535V48.2947L21.8738 48.0283H35.0114C37.9699 48.0283 44.8394 48.2947 44.8394 48.2947C44.9893 46.3723 45.9929 37.6698 46.1433 36.71H44.288L42.3323 41.4617C40.7776 45.1981 38.5216 45.4655 36.0139 45.4655H28.5419C26.0345 45.4655 24.831 44.3975 24.831 42.1021V29.9289C24.831 29.9289 30.2966 29.9289 32.2016 30.0894C33.6059 30.1966 34.4579 30.6236 34.9098 32.7055L35.5119 35.4818H37.6669L37.517 28.487L37.8176 21.4402H35.662L34.9605 24.5365C34.5086 26.5652 34.2083 26.9398 32.2523 27.1526C30.0463 27.4203 24.8307 27.3667 24.8307 27.3667V27.4197H24.8316V27.4188ZM54.5667 14.499C53.8646 17.8091 53.1624 20.3716 50.7053 22.0803C49.2012 23.1476 47.6966 23.5209 47.0957 23.5745V25.6032H51.5582V41.9936C51.5582 46.5857 54.4169 48.8285 58.2273 48.8285C61.186 48.8285 64.2443 47.4938 65.2976 44.7169L64.2443 43.2753C63.7426 44.1834 62.139 45.5178 60.1329 45.5178C57.927 45.5178 56.7235 43.9157 56.7235 39.8589V25.3907L64.1454 25.9784L64.546 22.347L56.7238 22.6677V14.552L54.5667 14.499ZM70.4126 39.7099L68.5072 39.7632C68.6073 40.9374 68.6579 42.4329 68.6579 43.8209C68.6579 45.2625 68.6079 46.5972 68.5072 47.2376C68.5072 47.2376 72.3182 48.7312 76.1793 48.7312C81.3943 48.7312 85.5566 46.0618 85.5566 40.8295C85.5566 31.8612 72.9203 33.1962 72.9203 27.1622C72.9203 24.6532 75.0261 23.6919 77.3327 23.6919C79.138 23.6919 80.6421 24.3859 80.943 25.4012L82.1968 29.4053L84.0525 29.2987C84.2032 27.1628 84.303 24.7069 84.6042 22.7318C82.9991 21.9842 79.6391 21.5563 77.5347 21.5563C72.6194 21.5563 68.6588 23.8524 68.6588 28.978C68.6588 37.8937 80.9936 36.0785 80.9936 42.6463C80.9936 44.9944 79.6391 46.6498 76.5811 46.6498C73.7737 46.6498 72.3692 45.102 71.8186 43.5528L70.4126 39.7099ZM100.635 45.8778C97.7323 54.5118 94.1786 56.7486 90.9756 56.7486C89.6235 56.7486 88.9735 56.1085 88.7724 55.0976L88.0217 50.9397L85.9191 51.0463C85.5187 53.4981 85.1183 56.217 84.5684 58.4547C85.8199 59.4659 87.921 60 89.5734 60C93.0279 60 98.2828 59.5195 103.087 47.3695L111.146 27.119C111.797 25.4665 112.047 25.3066 113.949 24.5067L115 24.0814V22.216L110.245 22.4825L105.14 22.216V24.0814L106.44 24.5067C107.741 24.934 108.343 25.4665 108.343 26.426C108.343 26.9052 108.192 27.3851 107.941 28.1305C107.191 30.157 102.536 42.2004 101.286 44.7591L102.535 44.2786C100.333 38.47 96.9807 28.77 96.4796 27.1193C96.3795 26.7993 96.3295 26.5329 96.3295 26.2652C96.3295 25.4129 96.88 24.7199 98.0814 24.4537L99.7333 24.0817V22.2163L92.8753 22.4828L87.4199 22.2163V24.0817L88.3211 24.4011C89.5722 24.8274 89.8728 25.2007 90.6235 27.0657C94.7765 37.1918 96.7299 42.7332 99.3815 49.9818L100.635 45.8778Z" fill="#F27224"/>
</svg>
