<svg width="189" height="31" viewBox="0 0 189 31" fill="none" xmlns="http://www.w3.org/2000/svg">
<path d="M0.590909 30.5455H6.86364V21.1364H6.95455C7.68182 22.9091 9.36364 24.2273 11.8182 24.2273C15.5455 24.2273 18.6818 21.3182 18.6818 15.2727C18.6818 8.95455 15.3182 6.31818 11.8636 6.31818C9.27273 6.31818 7.63636 7.81818 6.95455 9.59091H6.81818V6.54545H0.590909V30.5455ZM6.72727 15.2727C6.72727 12.6818 7.77273 11.1364 9.5 11.1364C11.2273 11.1364 12.2273 12.6818 12.2273 15.2727C12.2273 17.8636 11.2273 19.4091 9.5 19.4091C7.77273 19.4091 6.72727 17.8182 6.72727 15.2727ZM32.6278 16.3636C32.6392 18.0909 31.6392 19.1364 30.0824 19.1364C28.5028 19.1364 27.5938 18.0909 27.5824 16.3636V6.54545H21.3097V17.6818C21.321 21.5 23.7301 24.2273 27.4006 24.2273C30.0028 24.2273 32.0028 22.9091 32.7642 20.6818H32.946V24H38.9006V6.54545H32.6278V16.3636ZM58.0455 12.2273C57.8864 8.53409 54.8182 6.31818 49.7727 6.31818C44.7841 6.31818 41.7045 8.36364 41.7273 12C41.7045 14.75 43.4886 16.5114 47.0455 17.1364L50.1364 17.6818C51.5 17.9318 52.1136 18.2955 52.1364 18.9545C52.1136 19.6818 51.2841 20.0909 50.1364 20.0909C48.7159 20.0909 47.7159 19.4773 47.5455 18.3636H41.3182C41.6591 21.9432 44.75 24.3182 50.0909 24.3182C54.9205 24.3182 58.4773 21.9659 58.5 18.2273C58.4773 15.6477 56.75 14.1477 53.1818 13.5L49.6364 12.8636C48.3068 12.625 47.9318 12.1477 47.9545 11.6364C47.9318 10.9091 48.8295 10.5 49.9091 10.5C51.1477 10.5 52.1818 11.1591 52.2727 12.2273H58.0455ZM67.1761 14.1818C67.1875 12.4545 68.1875 11.4091 69.7216 11.4091C71.3239 11.4091 72.233 12.4545 72.2216 14.1818V24H78.4943V12.8636C78.5057 9.04545 76.0966 6.31818 72.4034 6.31818C69.8239 6.31818 67.9148 7.63636 67.1307 9.86364H66.9489V0.727272H60.9034V24H67.1761V14.1818Z" fill="white"/>
<path d="M92 6.54545H89V2.36364H82.7273V6.54545H80.5V11.0909H82.7273V18.9773C82.6818 22.6364 84.9432 24.4886 89.2727 24.25C90.6932 24.1705 91.75 23.875 92.3182 23.7045L91.4091 19.2955C91.1705 19.3523 90.5568 19.4773 90.1818 19.4773C89.3636 19.4773 89 19.1136 89 18.3864V11.0909H92V6.54545ZM99.4233 24.2727C101.696 24.2727 103.412 23.5 104.469 21.5455H104.605V24H110.469V12.0455C110.469 8.81818 107.412 6.31818 102.423 6.31818C97.2074 6.31818 94.6392 9.04545 94.4233 12.2273H100.196C100.344 11.1477 101.139 10.6364 102.332 10.6364C103.423 10.6364 104.196 11.1364 104.196 12.0455V12.0909C104.196 13.1023 103.082 13.4205 100.151 13.6364C96.5483 13.8977 93.7415 15.3523 93.7415 19.1818C93.7415 22.6591 96.0824 24.2727 99.4233 24.2727ZM101.469 20.3182C100.401 20.3182 99.6506 19.7955 99.6506 18.8182C99.6506 17.9205 100.287 17.2273 101.741 17C102.741 16.8409 103.582 16.6364 104.241 16.3636V17.8182C104.241 19.4091 102.889 20.3182 101.469 20.3182ZM129.42 12.2273C129.261 8.53409 126.193 6.31818 121.148 6.31818C116.159 6.31818 113.08 8.36364 113.102 12C113.08 14.75 114.864 16.5114 118.42 17.1364L121.511 17.6818C122.875 17.9318 123.489 18.2955 123.511 18.9545C123.489 19.6818 122.659 20.0909 121.511 20.0909C120.091 20.0909 119.091 19.4773 118.92 18.3636H112.693C113.034 21.9432 116.125 24.3182 121.466 24.3182C126.295 24.3182 129.852 21.9659 129.875 18.2273C129.852 15.6477 128.125 14.1477 124.557 13.5L121.011 12.8636C119.682 12.625 119.307 12.1477 119.33 11.6364C119.307 10.9091 120.205 10.5 121.284 10.5C122.523 10.5 123.557 11.1591 123.648 12.2273H129.42ZM132.278 24H138.551V19.0455L139.494 17.8523L143.051 24H150.233L144.119 14.1932L150.051 6.54545H143.006L138.778 12.4091H138.551V0.727272H132.278V24ZM159.33 24.3182C164.17 24.3182 167.284 22 167.875 18.3636H162.148C161.784 19.3523 160.75 19.9091 159.466 19.9091C157.602 19.9091 156.511 18.6818 156.511 17V16.7273H167.875V15.2727C167.875 9.71591 164.466 6.31818 159.193 6.31818C153.784 6.31818 150.33 9.90909 150.33 15.3182C150.33 20.9659 153.739 24.3182 159.33 24.3182ZM156.511 13.2727C156.545 11.7614 157.795 10.7273 159.33 10.7273C160.886 10.7273 162.068 11.7727 162.102 13.2727H156.511ZM170.435 24H176.707V14.9091C176.707 12.9091 178.082 11.5909 179.935 11.5909C180.582 11.5909 181.628 11.6932 182.253 11.9091V6.55682C181.753 6.40909 181.207 6.31818 180.662 6.31818C178.798 6.31818 177.344 7.40909 176.707 9.86364H176.526V6.54545H170.435V24ZM185.719 24.3636C187.389 24.3636 188.878 22.9545 188.901 21.1818C188.878 19.4545 187.389 18.0455 185.719 18.0455C183.957 18.0455 182.514 19.4545 182.537 21.1818C182.514 22.9545 183.957 24.3636 185.719 24.3636Z" fill="#59586F"/>
</svg>
