<svg width="200" height="31" viewBox="0 0 200 31" fill="none" xmlns="http://www.w3.org/2000/svg">
<path d="M17.5455 12.2273C17.3864 8.53409 14.3182 6.31818 9.27273 6.31818C4.28409 6.31818 1.20455 8.36364 1.22727 12C1.20455 14.75 2.98864 16.5114 6.54545 17.1364L9.63636 17.6818C11 17.9318 11.6136 18.2955 11.6364 18.9545C11.6136 19.6818 10.7841 20.0909 9.63636 20.0909C8.21591 20.0909 7.21591 19.4773 7.04545 18.3636H0.818182C1.15909 21.9432 4.25 24.3182 9.59091 24.3182C14.4205 24.3182 17.9773 21.9659 18 18.2273C17.9773 15.6477 16.25 14.1477 12.6818 13.5L9.13636 12.8636C7.80682 12.625 7.43182 12.1477 7.45455 11.6364C7.43182 10.9091 8.32955 10.5 9.40909 10.5C10.6477 10.5 11.6818 11.1591 11.7727 12.2273H17.5455ZM26.6761 14.1818C26.6875 12.4545 27.6875 11.4091 29.2216 11.4091C30.8239 11.4091 31.733 12.4545 31.7216 14.1818V24H37.9943V12.8636C38.0057 9.04545 35.5966 6.31818 31.9034 6.31818C29.3239 6.31818 27.4148 7.63636 26.6307 9.86364H26.4489V0.727272H20.4034V24H26.6761V14.1818ZM49.5 24.3182C55.1818 24.3182 58.5455 20.6818 58.5455 15.3182C58.5455 9.95455 55.1818 6.31818 49.5 6.31818C43.8182 6.31818 40.4545 9.95455 40.4545 15.3182C40.4545 20.6818 43.8182 24.3182 49.5 24.3182ZM49.5455 19.6818C47.8636 19.6818 46.8636 18.0114 46.8636 15.2727C46.8636 12.5341 47.8636 10.8636 49.5455 10.8636C51.1364 10.8636 52.1364 12.5341 52.1364 15.2727C52.1364 18.0114 51.1364 19.6818 49.5455 19.6818ZM61.0909 30.5455H67.3636V21.1364H67.4545C68.1818 22.9091 69.8636 24.2273 72.3182 24.2273C76.0455 24.2273 79.1818 21.3182 79.1818 15.2727C79.1818 8.95455 75.8182 6.31818 72.3636 6.31818C69.7727 6.31818 68.1364 7.81818 67.4545 9.59091H67.3182V6.54545H61.0909V30.5455ZM67.2273 15.2727C67.2273 12.6818 68.2727 11.1364 70 11.1364C71.7273 11.1364 72.7273 12.6818 72.7273 15.2727C72.7273 17.8636 71.7273 19.4091 70 19.4091C68.2727 19.4091 67.2273 17.8182 67.2273 15.2727Z" fill="white"/>
<path d="M97.7642 12.2273C97.6051 8.53409 94.5369 6.31818 89.4915 6.31818C84.5028 6.31818 81.4233 8.36364 81.446 12C81.4233 14.75 83.2074 16.5114 86.7642 17.1364L89.8551 17.6818C91.2188 17.9318 91.8324 18.2955 91.8551 18.9545C91.8324 19.6818 91.0028 20.0909 89.8551 20.0909C88.4347 20.0909 87.4347 19.4773 87.2642 18.3636H81.0369C81.3778 21.9432 84.4688 24.3182 89.8097 24.3182C94.6392 24.3182 98.196 21.9659 98.2188 18.2273C98.196 15.6477 96.4688 14.1477 92.9006 13.5L89.3551 12.8636C88.0256 12.625 87.6506 12.1477 87.6733 11.6364C87.6506 10.9091 88.5483 10.5 89.6278 10.5C90.8665 10.5 91.9006 11.1591 91.9915 12.2273H97.7642ZM108.986 24.3182C113.827 24.3182 116.94 22 117.531 18.3636H111.804C111.44 19.3523 110.406 19.9091 109.122 19.9091C107.259 19.9091 106.168 18.6818 106.168 17V16.7273H117.531V15.2727C117.531 9.71591 114.122 6.31818 108.849 6.31818C103.44 6.31818 99.9858 9.90909 99.9858 15.3182C99.9858 20.9659 103.395 24.3182 108.986 24.3182ZM106.168 13.2727C106.202 11.7614 107.452 10.7273 108.986 10.7273C110.543 10.7273 111.724 11.7727 111.759 13.2727H106.168ZM126.364 14.1818C126.375 12.4545 127.352 11.4091 128.909 11.4091C130.489 11.4091 131.42 12.4545 131.409 14.1818V24H137.682V12.8636C137.693 9.06818 135.295 6.31818 131.591 6.31818C129.023 6.31818 126.989 7.65909 126.227 9.86364H126.045V6.54545H120.091V24H126.364V14.1818ZM147.097 24.2273C149.551 24.2273 151.233 22.9091 151.96 21.1364H152.097V24H158.324V0.727272H152.051V9.59091H151.96C151.278 7.81818 149.642 6.31818 147.051 6.31818C143.597 6.31818 140.233 8.95455 140.233 15.2727C140.233 21.3182 143.369 24.2273 147.097 24.2273ZM149.415 19.4091C147.688 19.4091 146.688 17.8636 146.688 15.2727C146.688 12.6818 147.688 11.1364 149.415 11.1364C151.142 11.1364 152.188 12.6818 152.188 15.2727C152.188 17.8182 151.142 19.4091 149.415 19.4091ZM169.767 24.3182C174.608 24.3182 177.722 22 178.312 18.3636H172.585C172.222 19.3523 171.188 19.9091 169.903 19.9091C168.04 19.9091 166.949 18.6818 166.949 17V16.7273H178.312V15.2727C178.312 9.71591 174.903 6.31818 169.631 6.31818C164.222 6.31818 160.767 9.90909 160.767 15.3182C160.767 20.9659 164.176 24.3182 169.767 24.3182ZM166.949 13.2727C166.983 11.7614 168.233 10.7273 169.767 10.7273C171.324 10.7273 172.506 11.7727 172.54 13.2727H166.949ZM180.872 24H187.145V14.9091C187.145 12.9091 188.52 11.5909 190.372 11.5909C191.02 11.5909 192.065 11.6932 192.69 11.9091V6.55682C192.19 6.40909 191.645 6.31818 191.099 6.31818C189.236 6.31818 187.781 7.40909 187.145 9.86364H186.963V6.54545H180.872V24ZM196.156 24.3636C197.827 24.3636 199.315 22.9545 199.338 21.1818C199.315 19.4545 197.827 18.0455 196.156 18.0455C194.395 18.0455 192.952 19.4545 192.974 21.1818C192.952 22.9545 194.395 24.3636 196.156 24.3636Z" fill="#59586F"/>
</svg>

