<svg width="210" height="60" viewBox="0 0 210 60" fill="none" xmlns="http://www.w3.org/2000/svg">
<g clip-path="url(#clip0)">
<path d="M45.108 11.3867C45.066 11.0926 44.814 10.9245 44.604 10.9245C44.394 10.9245 40.236 10.8405 40.236 10.8405C40.236 10.8405 36.75 7.47912 36.414 7.10097C36.078 6.76484 35.406 6.84887 35.154 6.9329C35.154 6.9329 34.482 7.14299 33.39 7.47912C33.222 6.89089 32.928 6.1766 32.55 5.4203C31.332 3.06736 29.484 1.80685 27.3 1.80685C27.132 1.80685 27.006 1.80685 26.838 1.84887C26.754 1.76484 26.712 1.6808 26.628 1.63879C25.662 0.630383 24.444 0.126181 22.974 0.168198C20.16 0.252232 17.346 2.31106 15.036 5.9245C13.44 8.48753 12.222 11.6808 11.844 14.1598C8.61 15.1682 6.342 15.8825 6.258 15.8825C4.62 16.3867 4.578 16.4287 4.368 17.9833C4.284 19.1598 0 52.3111 0 52.3111L35.952 58.5295L51.534 54.664C51.492 54.664 45.15 11.6808 45.108 11.3867ZM31.584 8.06736C30.744 8.31946 29.82 8.61358 28.812 8.94971C28.812 7.52114 28.602 5.50433 27.972 3.82366C30.114 4.1598 31.164 6.59677 31.584 8.06736ZM26.922 9.49593C25.032 10.0842 22.974 10.7144 20.916 11.3447C21.504 9.11778 22.596 6.9329 23.94 5.46232C24.444 4.9161 25.158 4.32786 25.956 3.99173C26.796 5.63038 26.964 7.94131 26.922 9.49593ZM23.058 2.05895C23.73 2.05895 24.276 2.185 24.738 2.52114C23.982 2.89929 23.226 3.48753 22.554 4.24383C20.748 6.1766 19.362 9.1598 18.816 12.059C17.094 12.6052 15.414 13.1094 13.902 13.5716C14.91 8.99173 18.732 2.185 23.058 2.05895Z" fill="#95BF47"/>
<path d="M44.604 10.9245C44.394 10.9245 40.236 10.8404 40.236 10.8404C40.236 10.8404 36.75 7.4791 36.414 7.10095C36.288 6.9749 36.12 6.89087 35.952 6.89087V58.5295L51.534 54.664C51.534 54.664 45.192 11.6808 45.15 11.3867C45.066 11.0926 44.814 10.9245 44.604 10.9245Z" fill="#5E8E3E"/>
<path d="M27.3 18.9496L25.494 25.7143C25.494 25.7143 23.478 24.79 21.084 24.958C17.556 25.1681 17.556 27.395 17.556 27.9412C17.766 30.9664 25.704 31.6387 26.166 38.7395C26.502 44.3278 23.226 48.1513 18.438 48.4454C12.726 48.7395 9.576 45.3782 9.576 45.3782L10.794 40.2101C10.794 40.2101 13.986 42.6051 16.506 42.437C18.144 42.353 18.774 40.9664 18.69 40.0421C18.438 36.0925 11.97 36.3446 11.55 29.832C11.214 24.3698 14.784 18.8656 22.68 18.3614C25.746 18.1513 27.3 18.9496 27.3 18.9496Z" fill="white"/>
<path d="M72.618 33.3616C70.812 32.3953 69.888 31.5549 69.888 30.4205C69.888 28.9919 71.19 28.0675 73.206 28.0675C75.558 28.0675 77.658 29.0339 77.658 29.0339L79.296 23.9919C79.296 23.9919 77.784 22.8154 73.332 22.8154C67.116 22.8154 62.79 26.3869 62.79 31.3869C62.79 34.244 64.806 36.3869 67.494 37.9415C69.678 39.16 70.434 40.0423 70.434 41.3448C70.434 42.6894 69.342 43.7818 67.326 43.7818C64.344 43.7818 61.488 42.2272 61.488 42.2272L59.724 47.2692C59.724 47.2692 62.328 49.0339 66.738 49.0339C73.122 49.0339 77.742 45.8826 77.742 40.2104C77.7 37.1432 75.39 34.9583 72.618 33.3616Z" fill="black"/>
<path d="M98.07 22.7313C94.92 22.7313 92.442 24.2439 90.552 26.5128L90.468 26.4708L93.198 12.1851H86.1L79.17 48.5716H86.268L88.62 36.1346C89.544 31.4288 91.98 28.5296 94.248 28.5296C95.844 28.5296 96.474 29.622 96.474 31.1767C96.474 32.143 96.39 33.3615 96.18 34.3279L93.492 48.5716H100.59L103.362 33.8657C103.656 32.3111 103.866 30.4624 103.866 29.2019C103.908 25.1683 101.808 22.7313 98.07 22.7313Z" fill="black"/>
<path d="M119.994 22.7312C111.426 22.7312 105.756 30.4623 105.756 39.0757C105.756 44.5799 109.158 49.0337 115.542 49.0337C123.942 49.0337 129.612 41.5127 129.612 32.6892C129.654 27.6052 126.672 22.7312 119.994 22.7312ZM116.508 43.6136C114.072 43.6136 113.064 41.5547 113.064 38.9497C113.064 34.8741 115.164 28.2354 119.028 28.2354C121.548 28.2354 122.388 30.4203 122.388 32.5211C122.388 36.8909 120.246 43.6136 116.508 43.6136Z" fill="black"/>
<path d="M147.84 22.7312C143.052 22.7312 140.322 26.9749 140.322 26.9749H140.238L140.658 23.1514H134.358C134.064 25.7144 133.476 29.664 132.93 32.6052L127.974 58.6556H135.072L137.046 48.1094H137.214C137.214 48.1094 138.684 49.0337 141.372 49.0337C149.73 49.0337 155.19 40.4623 155.19 31.8068C155.19 27.0169 153.048 22.7312 147.84 22.7312ZM141.036 43.6976C139.188 43.6976 138.096 42.6472 138.096 42.6472L139.272 36.0085C140.112 31.5547 142.422 28.6136 144.9 28.6136C147.084 28.6136 147.756 30.6304 147.756 32.5211C147.756 37.143 145.026 43.6976 141.036 43.6976Z" fill="black"/>
<path d="M165.354 12.5212C163.086 12.5212 161.28 14.328 161.28 16.6389C161.28 18.7397 162.624 20.2103 164.64 20.2103H164.724C166.95 20.2103 168.84 18.6977 168.882 16.0927C168.882 14.0338 167.496 12.5212 165.354 12.5212Z" fill="black"/>
<path d="M155.4 48.5297H162.498L167.328 23.3196H160.188L155.4 48.5297Z" fill="black"/>
<path d="M185.43 23.2775H180.474L180.726 22.1011C181.146 19.6641 182.574 17.5212 184.968 17.5212C186.228 17.5212 187.236 17.8994 187.236 17.8994L188.622 12.3112C188.622 12.3112 187.404 11.6809 184.758 11.6809C182.238 11.6809 179.718 12.3952 177.786 14.0339C175.35 16.0927 174.216 19.0759 173.67 22.1011L173.46 23.2775H170.142L169.092 28.6557H172.41L168.63 48.5717H175.728L179.508 28.6557H184.422L185.43 23.2775Z" fill="black"/>
<path d="M202.566 23.3196C202.566 23.3196 198.114 34.5381 196.14 40.6725H196.056C195.93 38.6977 194.292 23.3196 194.292 23.3196H186.816L191.1 46.4708C191.184 46.975 191.142 47.3112 190.932 47.6473C190.092 49.2439 188.706 50.7986 187.068 51.933C185.724 52.8994 184.212 53.5297 183.036 53.9498L185.01 60.0003C186.438 59.7061 189.462 58.4876 191.982 56.1347C195.216 53.1095 198.24 48.4036 201.306 42.0171L210 23.3196H202.566Z" fill="black"/>
</g>
<defs>
<clipPath id="clip0">
<rect width="210" height="60" fill="white"/>
</clipPath>
</defs>
</svg>
