<svg width="510" height="372" viewBox="0 0 510 372" fill="none" xmlns="http://www.w3.org/2000/svg">
<path d="M375.086 0.212646H0.160095V240.414H375.086V0.212646Z" fill="#E6E6E6"/>
<path d="M364.365 30.3398H10.881V226.204H364.365V30.3398Z" fill="white"/>
<path d="M374.925 0H0V15.9337H374.925V0Z" fill="#59586F"/>
<path d="M11.8366 11.0992C13.467 11.0992 14.7887 9.77705 14.7887 8.14605C14.7887 6.51506 13.467 5.19287 11.8366 5.19287C10.2061 5.19287 8.8844 6.51506 8.8844 8.14605C8.8844 9.77705 10.2061 11.0992 11.8366 11.0992Z" fill="white"/>
<path d="M23.0423 11.0992C24.6727 11.0992 25.9944 9.77705 25.9944 8.14605C25.9944 6.51506 24.6727 5.19287 23.0423 5.19287C21.4118 5.19287 20.0901 6.51506 20.0901 8.14605C20.0901 9.77705 21.4118 11.0992 23.0423 11.0992Z" fill="white"/>
<path d="M34.2479 11.0992C35.8784 11.0992 37.2001 9.77705 37.2001 8.14605C37.2001 6.51506 35.8784 5.19287 34.2479 5.19287C32.6175 5.19287 31.2958 6.51506 31.2958 8.14605C31.2958 9.77705 32.6175 11.0992 34.2479 11.0992Z" fill="white"/>
<path d="M123.509 46.4497H54.3732V121.482H123.509V46.4497Z" fill="#E6E6E6"/>
<path d="M222.19 46.4497H153.054V121.482H222.19V46.4497Z" fill="#E6E6E6"/>
<path d="M320.871 46.4497H251.735V121.482H320.871V46.4497Z" fill="#E6E6E6"/>
<path d="M123.509 135.063H54.3732V210.096H123.509V135.063Z" fill="#E6E6E6"/>
<path d="M222.19 135.063H153.054V210.096H222.19V135.063Z" fill="#E6E6E6"/>
<path d="M320.871 135.063H251.735V210.096H320.871V135.063Z" fill="#E6E6E6"/>
<path d="M169.764 154.347L182.396 149.351L183.865 174.33C183.865 174.33 186.509 181.971 185.627 184.909C185.627 184.909 186.215 189.905 184.746 190.199C183.277 190.493 179.165 191.08 178.871 190.787C178.577 190.493 178.577 189.611 178.577 189.611C178.577 189.611 175.639 191.668 175.346 194.019C175.346 194.019 163.007 197.839 162.714 194.313C162.42 190.787 168.883 187.848 168.883 187.848L173.877 180.207L169.764 154.347Z" fill="white"/>
<path d="M196.497 154.347L209.129 149.351L210.598 174.33C210.598 174.33 213.242 181.971 212.36 184.909C212.36 184.909 212.948 189.905 211.479 190.199C210.01 190.493 205.897 191.08 205.604 190.787C205.31 190.493 205.31 189.611 205.31 189.611C205.31 189.611 202.372 191.668 202.078 194.019C202.078 194.019 189.74 197.839 189.446 194.313C189.153 190.787 195.616 187.848 195.616 187.848L200.61 180.207L196.497 154.347Z" fill="white"/>
<path d="M197.733 57.8877C197.733 57.8877 195.043 65.4058 198.159 68.7962L195.561 77.7271C195.561 77.7271 204.792 105.43 202.155 109.3C202.155 109.3 192.308 114.225 172.615 107.541L180.616 76.4959L179.473 63.392L181.055 57.2358L184.572 56.884C184.572 56.884 182.462 64.7991 186.33 66.0304C190.198 67.2616 193.972 57.0816 193.972 57.0816L197.733 57.8877Z" fill="#3F3D56"/>
<path d="M73.5176 106.422L76.9119 107.811L93.1118 86.5124L98.2032 111.515L101.597 110.898C103.775 89.3421 105.55 67.3555 103.372 56.9567L90.7975 56.4165L85.089 74.6284L82.3118 86.9754L73.5176 106.422Z" fill="white"/>
<path d="M279.528 56.7839C279.528 56.7839 274.895 63.2262 275.121 65.8257C275.347 68.4252 278.285 110.809 278.285 110.809L285.177 111.148L283.143 80.6317L284.838 72.3811L289.018 110.809L297.492 111.035L289.922 61.1918L288.453 56.784L279.528 56.7839Z" fill="white"/>
<path d="M305.709 160.567C304.479 159.091 302.365 158.292 300.334 157.861C300.395 157.676 294.16 156.388 294.055 156.653L291.705 154.781L284.486 158.531L280.428 155.768L278.543 156.437C278.62 156.105 272.693 157.132 272.693 157.132C271.56 157.172 270.114 157.243 268.495 157.368C262.826 157.804 262.39 172.491 262.39 172.491C264.998 171.424 267.779 170.841 270.597 170.772L272.129 188.342C280.011 187.666 288.276 188.453 296.842 190.378L300.859 176.567L310.216 172.928C310.216 172.928 308.617 164.057 305.709 160.567Z" fill="#3F3D56"/>
<path d="M104.932 152.202C103.918 150.986 102.176 150.328 100.503 149.973C100.553 149.82 95.4152 148.759 95.3293 148.978L93.3928 147.435L87.4441 150.525L84.1009 148.248L82.5479 148.8C82.6112 148.526 77.7271 149.372 77.7271 149.372C76.7941 149.405 75.6024 149.464 74.2686 149.566C69.5972 149.926 69.2379 162.027 69.2379 162.027C71.3872 161.148 73.6789 160.668 76.0004 160.611L77.263 196.047C83.7569 195.489 90.5676 196.138 97.6251 197.724L100.935 165.386L108.645 162.387C108.645 162.387 107.327 155.078 104.932 152.202Z" fill="white"/>
<path d="M356.477 356.377L309.709 365.953L308.643 365.844L267.544 361.695V309.593L317.856 301.084L354.352 305.342L354.365 305.573V305.682L356.477 356.377Z" fill="#E6E6E6"/>
<path opacity="0.1" d="M356.477 356.377L309.709 365.953L308.643 365.844V312.432L354.365 305.573L356.477 356.377Z" fill="black"/>
<path opacity="0.05" d="M354.365 305.682L354.352 305.695L308.643 312.432L267.544 309.593L317.856 301.084L354.352 305.342L354.365 305.573V305.682Z" fill="black"/>
<path d="M301.637 329.633L273.202 327.777L272.331 341.128L300.766 342.984L301.637 329.633Z" fill="white"/>
<path d="M294.679 333.551L279.592 332.566L279.289 337.21L294.376 338.195L294.679 333.551Z" fill="#59586F"/>
<path d="M419.863 356.377L373.096 365.953L372.03 365.844L330.931 361.695V309.593L381.242 301.084L417.738 305.342L417.752 305.573V305.682L419.863 356.377Z" fill="#59586F"/>
<path opacity="0.1" d="M419.863 356.377L373.095 365.953L372.03 365.844V312.432L417.752 305.573L419.863 356.377Z" fill="black"/>
<path opacity="0.05" d="M417.752 305.682L417.738 305.695L372.03 312.432L330.931 309.593L381.242 301.084L417.738 305.342L417.752 305.573V305.682Z" fill="black"/>
<path d="M365.023 329.633L336.589 327.777L335.718 341.128L364.152 342.984L365.023 329.633Z" fill="white"/>
<path d="M358.066 333.551L342.978 332.566L342.675 337.21L357.763 338.195L358.066 333.551Z" fill="#59586F"/>
<path d="M453.705 96.3464C453.705 96.3464 461.957 117.67 446.829 117.67C431.701 117.67 470.208 138.995 485.336 126.613C500.464 114.231 491.525 113.543 491.525 113.543C491.525 113.543 471.584 115.607 472.271 97.7222L453.705 96.3464Z" fill="#FFB8B8"/>
<path d="M464.454 102.765C477.886 102.765 488.774 91.873 488.774 78.4372C488.774 65.0015 477.886 54.1096 464.454 54.1096C451.023 54.1096 440.135 65.0015 440.135 78.4372C440.135 91.873 451.023 102.765 464.454 102.765Z" fill="#2F2E41"/>
<path d="M449.579 185.082L423.449 252.493C423.449 252.493 410.384 273.129 415.197 293.766C420.011 314.402 433.238 351.96 433.238 351.96C433.238 351.96 443.23 354.503 442.543 345.561C441.855 336.618 442.971 293.264 432.657 281.571L474.334 233.921L475.709 288.263C475.709 288.263 472.959 313.026 473.647 324.032C474.334 335.038 475.709 353.611 475.709 353.611L483.961 352.235C483.961 352.235 495.092 301.57 493.717 285.061C493.717 285.061 519.266 204.846 493.136 185.585L449.579 185.082Z" fill="#2F2E41"/>
<path d="M436.111 351.848C436.111 351.848 432.746 350.991 432.359 354.078C431.971 357.164 424.895 370.892 432.283 371.579C439.671 372.266 442.227 365.351 443.464 360.49C444.702 355.629 445.171 355.35 446.204 354.419C447.237 353.487 449.696 348.384 446.611 347.997C443.525 347.609 441.943 344.573 441.943 344.573C441.943 344.573 440.97 353.086 436.111 351.848Z" fill="#2F2E41"/>
<path d="M481.096 349.461C481.096 349.461 474.856 348.569 475.302 350.798C475.748 353.027 474.411 362.39 475.302 363.282C476.194 364.173 477.976 365.957 477.976 367.294C477.976 368.632 478.422 373.09 485.999 371.753C493.575 370.415 491.793 363.727 491.347 362.836C490.901 361.944 485.553 357.486 485.999 354.811C486.444 352.136 483.77 347.677 481.096 349.461Z" fill="#2F2E41"/>
<path d="M464.754 105.434C474.057 105.434 481.599 97.8895 481.599 88.5833C481.599 79.2771 474.057 71.7329 464.754 71.7329C455.451 71.7329 447.91 79.2771 447.91 88.5833C447.91 97.8895 455.451 105.434 464.754 105.434Z" fill="#FFB8B8"/>
<path d="M480.867 111.824C480.867 111.824 486.742 123.452 469.033 123.781C463.589 123.883 457.114 119.914 454.442 115.168C452.867 112.373 452.469 116.234 449.923 115.951C445.101 115.415 439.95 117.416 435.341 119.868C434.746 120.184 434.278 120.697 434.019 121.319C433.76 121.942 433.725 122.635 433.921 123.28C437.416 134.882 447.399 190.691 448.94 193.73C452.875 201.489 495.462 188.494 495.462 188.494C496.046 167.381 488.385 137.843 501.859 116.36C498.895 114.132 495.484 112.573 491.86 111.79C488.236 111.007 484.486 111.018 480.867 111.824Z" fill="#8887AA"/>
<path d="M480.507 75.6259L468.165 69.1594L451.122 71.8045L447.596 87.3838L456.374 87.0458L458.826 81.3222V86.9516L462.876 86.7957L465.226 77.6835L466.696 87.3838L481.093 87.0894L480.507 75.6259Z" fill="#2F2E41"/>
<path d="M465.734 60.5117C471.154 60.5117 475.547 56.1167 475.547 50.6953C475.547 45.2739 471.154 40.8789 465.734 40.8789C460.315 40.8789 455.921 45.2739 455.921 50.6953C455.921 56.1167 460.315 60.5117 465.734 60.5117Z" fill="#2F2E41"/>
<path d="M453.361 47.7078C453.361 45.3631 454.2 43.0958 455.726 41.3161C457.252 39.5363 459.365 38.3616 461.681 38.0043C460.283 37.7903 458.856 37.8811 457.496 38.2704C456.136 38.6598 454.877 39.3385 453.804 40.26C452.731 41.1816 451.87 42.3242 451.28 43.6097C450.689 44.8952 450.384 46.2931 450.384 47.7078C450.384 49.1224 450.689 50.5204 451.28 51.8058C451.87 53.0913 452.731 54.234 453.804 55.1555C454.877 56.0771 456.136 56.7558 457.496 57.1451C458.856 57.5344 460.283 57.6252 461.681 57.4112C459.365 57.0539 457.252 55.8792 455.726 54.0995C454.2 52.3197 453.361 50.0525 453.361 47.7078Z" fill="#2F2E41"/>
<path d="M510 281.334L463.232 290.91L462.166 290.801L421.068 286.652V234.55L471.379 226.042L507.875 230.299L507.888 230.53V230.639L510 281.334Z" fill="#E6E6E6"/>
<path opacity="0.1" d="M510 281.334L463.232 290.91L462.166 290.801V237.389L507.888 230.53L510 281.334Z" fill="black"/>
<path opacity="0.05" d="M507.888 230.639L507.875 230.652L462.166 237.389L421.068 234.55L471.379 226.042L507.875 230.299L507.888 230.53V230.639Z" fill="black"/>
<path d="M455.16 254.59L426.726 252.734L425.855 266.085L454.289 267.941L455.16 254.59Z" fill="white"/>
<path d="M448.203 258.508L433.115 257.523L432.812 262.167L447.9 263.152L448.203 258.508Z" fill="#59586F"/>
<path d="M437.147 221.17C437.147 221.17 419.956 234.927 427.52 239.742C435.084 244.557 444.023 221.17 444.023 221.17H437.147Z" fill="#FFB8B8"/>
<path d="M437.89 119.269C437 118.265 425.756 124.001 427.423 131.485L428.207 183.337C428.207 183.337 424.082 225.985 434.396 225.985C444.711 225.985 443.494 227.419 444.869 223.98C446.244 220.54 446.613 191.403 446.613 191.403L437.89 119.269Z" fill="#8887AA"/>
<path d="M491.074 216.516C491.074 216.516 500.013 239.903 507.577 235.088C515.141 230.273 497.95 216.516 497.95 216.516H491.074Z" fill="#FFB8B8"/>
<path d="M493.136 187.331C493.136 187.331 488.853 215.886 490.228 219.326C491.603 222.765 490.386 221.331 500.701 221.331C511.015 221.331 506.889 178.683 506.889 178.683L507.674 126.831C509.341 119.348 498.097 113.611 497.206 114.615L487.32 148.355L493.136 187.331Z" fill="#8887AA"/>
</svg>
