<svg width="673" height="412" viewBox="0 0 673 412" fill="none" xmlns="http://www.w3.org/2000/svg">
<g clip-path="url(#clip0)">
<path d="M620.096 411.193C629.942 411.193 637.923 409.747 637.923 407.965C637.923 406.182 629.942 404.736 620.096 404.736C610.25 404.736 602.268 406.182 602.268 407.965C602.268 409.747 610.25 411.193 620.096 411.193Z" fill="#F2F2F2"/>
<path d="M640.895 99.6709H639.409V133.567H640.895V99.6709Z" fill="#F2F2F2"/>
<path d="M624.553 77.8804H615.639V412H624.553V77.8804Z" fill="#F2F2F2"/>
<path d="M660.905 104.11H579.286C578.391 104.11 577.506 103.903 576.69 103.503C575.874 103.103 575.145 102.519 574.553 101.79C573.96 101.061 573.517 100.203 573.253 99.2734C572.989 98.3439 572.91 97.3641 573.021 96.399L583.421 6.00915C583.614 4.35099 584.356 2.82609 585.51 1.71997C586.663 0.613854 588.148 0.00236435 589.686 0H650.505C652.044 0.00236411 653.528 0.613854 654.682 1.71997C655.835 2.82609 656.578 4.35099 656.77 6.00915L667.17 96.399C667.281 97.3641 667.202 98.344 666.938 99.2734C666.674 100.203 666.231 101.061 665.638 101.79C665.046 102.519 664.317 103.103 663.501 103.503C662.685 103.903 661.8 104.11 660.905 104.11Z" fill="#F2F2F2"/>
<path d="M640.152 139.217C643.024 139.217 645.352 136.687 645.352 133.567C645.352 130.447 643.024 127.918 640.152 127.918C637.28 127.918 634.952 130.447 634.952 133.567C634.952 136.687 637.28 139.217 640.152 139.217Z" fill="#F2F2F2"/>
<path d="M93.2693 322.308C89.5165 336.453 78.5587 346.354 67.1283 354.765C65.5323 355.94 63.9358 357.087 62.3388 358.208C62.328 358.213 62.3168 358.224 62.3059 358.229C62.229 358.283 62.1521 358.337 62.0805 358.391C61.7509 358.622 61.4212 358.853 61.0943 359.081L61.2738 359.168C61.2738 359.168 61.4501 359.27 61.2572 359.185C61.1998 359.159 61.1397 359.135 61.0824 359.109C54.4421 356.199 47.6838 353.075 42.595 347.624C37.3161 341.964 34.2311 333.086 37.0896 325.65C37.4653 324.676 37.9399 323.75 38.5045 322.891C38.7364 322.53 38.9861 322.185 39.2461 321.847C40.8229 319.756 42.8837 318.159 45.2168 317.221C47.5498 316.282 50.0709 316.035 52.5207 316.506C54.9705 316.977 57.2607 318.149 59.1557 319.9C61.0507 321.651 62.4822 323.919 63.303 326.471C64.1427 317.976 57.6955 310.86 51.491 305.61C45.2838 300.362 38.2307 294.648 37.0306 286.2C36.3605 281.5 37.8649 276.945 40.6053 273.288C40.6901 273.177 40.7749 273.066 40.8622 272.958C44.1981 268.699 48.89 265.965 54.0007 265.3C63.5187 264.225 72.764 269.699 79.6786 276.889C90.8076 288.457 97.5356 306.225 93.2693 322.308Z" fill="#F2F2F2"/>
<path d="M75.379 303.807C77.2057 306.894 78.6081 310.255 79.5421 313.782C80.3319 316.935 80.6834 320.199 80.585 323.464C80.3302 330.185 78.5938 336.74 75.5217 342.579C73.2076 347.009 70.3875 351.103 67.1283 354.765C65.5323 355.94 63.9358 357.087 62.3388 358.208C62.328 358.213 62.3168 358.224 62.3059 358.229C62.229 358.283 62.152 358.337 62.0805 358.391C61.7509 358.621 61.4211 358.852 61.0943 359.081C61.0943 359.081 61.4501 359.27 61.2572 359.185C61.1998 359.159 61.1397 359.135 61.0824 359.109C61.6775 353.808 61.0945 348.428 59.3821 343.422C57.6698 338.416 54.878 333.929 51.2407 330.337C47.5946 326.799 43.2306 324.248 38.5045 322.891C38.7364 322.53 38.9861 322.185 39.2461 321.846C41.0714 322.403 42.8479 323.133 44.5548 324.029C50.6564 327.212 55.6525 332.446 58.8036 338.954C61.6312 344.864 62.8482 351.528 62.3116 358.163C62.5844 357.894 62.8576 357.62 63.1225 357.348C68.1684 352.237 72.6502 346.37 75.6834 339.6C78.3148 333.866 79.6081 327.517 79.4494 321.112C79.2018 314.128 76.6408 307.66 72.9326 302.028C68.8685 296.021 64.0673 290.645 58.6626 286.05C53.2157 281.31 47.2555 277.312 40.9148 274.146C40.7718 274.073 40.6599 273.944 40.6023 273.784C40.5447 273.624 40.5458 273.447 40.6053 273.288C40.6476 273.146 40.74 273.027 40.8623 272.958C40.9252 272.928 40.9935 272.915 41.0619 272.918C41.1304 272.921 41.1974 272.941 41.2578 272.976C42.0406 273.368 42.8181 273.765 43.5893 274.179C50.0126 277.628 56.0167 281.931 61.4635 286.989C66.7248 291.862 71.678 297.43 75.379 303.807Z" fill="white"/>
<path d="M39.0914 357.928H80.2169C80.668 357.928 81.114 358.032 81.5252 358.233C81.9364 358.435 82.3035 358.729 82.602 359.097C82.9006 359.464 83.1238 359.896 83.2569 360.365C83.3899 360.833 83.4298 361.327 83.3738 361.813L78.1337 407.358C78.0365 408.194 77.6623 408.962 77.0812 409.519C76.5001 410.077 75.7519 410.385 74.9768 410.386H44.3315C43.5563 410.385 42.8082 410.077 42.2271 409.519C41.646 408.962 41.2718 408.194 41.1746 407.358L35.9345 361.813C35.8785 361.327 35.9184 360.833 36.0515 360.365C36.1845 359.896 36.4077 359.464 36.7063 359.097C37.0048 358.729 37.3719 358.435 37.7831 358.233C38.1943 358.032 38.6403 357.928 39.0914 357.928Z" fill="#F2F2F2"/>
<path d="M173.181 410.736C176.023 410.736 178.328 408.232 178.328 405.144C178.328 402.056 176.023 399.552 173.181 399.552C170.338 399.552 168.034 402.056 168.034 405.144C168.034 408.232 170.338 410.736 173.181 410.736Z" fill="#CCCCCC"/>
<path d="M498.289 410.736C501.131 410.736 503.436 408.232 503.436 405.144C503.436 402.056 501.131 399.552 498.289 399.552C495.446 399.552 493.142 402.056 493.142 405.144C493.142 408.232 495.446 410.736 498.289 410.736Z" fill="#CCCCCC"/>
<path d="M267.539 327.324H186.906C183.153 327.32 179.556 325.698 176.902 322.815C174.249 319.932 172.756 316.024 172.752 311.947V252.3C172.756 248.223 174.249 244.315 176.902 241.432C179.556 238.549 183.153 236.927 186.906 236.923H267.539C271.292 236.927 274.89 238.549 277.543 241.432C280.196 244.315 281.689 248.223 281.693 252.3V311.947C281.689 316.024 280.196 319.932 277.543 322.815C274.89 325.698 271.292 327.32 267.539 327.324Z" fill="#E6E6E6"/>
<path d="M376.052 327.79H295.418C291.666 327.786 288.068 326.164 285.414 323.281C282.761 320.399 281.268 316.49 281.264 312.413V252.767C281.268 248.69 282.761 244.781 285.414 241.898C288.068 239.015 291.666 237.394 295.418 237.389H376.052C379.804 237.394 383.402 239.015 386.055 241.898C388.709 244.781 390.201 248.69 390.205 252.767V312.413C390.201 316.49 388.709 320.399 386.055 323.281C383.402 326.164 379.804 327.786 376.052 327.79Z" fill="#E6E6E6"/>
<path d="M484.564 328.256H403.93C400.178 328.252 396.58 326.63 393.927 323.747C391.273 320.864 389.781 316.956 389.776 312.879V253.233C389.781 249.156 391.273 245.247 393.927 242.364C396.58 239.481 400.178 237.86 403.93 237.855H484.564C488.316 237.86 491.914 239.481 494.568 242.364C497.221 245.247 498.713 249.156 498.718 253.233V312.879C498.713 316.956 497.221 320.864 494.567 323.747C491.914 326.63 488.316 328.252 484.564 328.256Z" fill="#E6E6E6"/>
<path d="M515.445 324.062H160.314V404.678H515.445V324.062Z" fill="#E6E6E6"/>
<path d="M173.181 405.144H157.74C149.936 405.144 143.587 397.312 143.587 387.684V303.559H173.181V405.144Z" fill="#E6E6E6"/>
<path d="M513.729 405.144H498.289V290.512H527.883V385.442C527.883 396.306 521.534 405.144 513.729 405.144Z" fill="#E6E6E6"/>
<path d="M282.122 340.838H173.181V315.675C209.495 293.043 245.808 293.043 282.122 315.675V340.838Z" fill="#CCCCCC"/>
<path d="M390.634 341.304H281.693V316.141C318.007 293.509 354.321 293.509 390.634 316.141V341.304Z" fill="#CCCCCC"/>
<path d="M499.147 341.77H390.205V316.607C426.519 293.975 462.833 293.975 499.147 316.607V341.77Z" fill="#CCCCCC"/>
<path d="M152.165 324.995C166.14 324.995 177.47 312.686 177.47 297.501C177.47 282.317 166.14 270.008 152.165 270.008C138.189 270.008 126.859 282.317 126.859 297.501C126.859 312.686 138.189 324.995 152.165 324.995Z" fill="#CCCCCC"/>
<path d="M522.736 324.063C536.712 324.063 548.042 311.753 548.042 296.569C548.042 281.385 536.712 269.076 522.736 269.076C508.761 269.076 497.431 281.385 497.431 296.569C497.431 311.753 508.761 324.063 522.736 324.063Z" fill="#CCCCCC"/>
<path d="M448.194 242.708C448.253 243.15 448.279 243.596 448.274 244.043L478.606 266.757L486.695 262.596L494.07 275.039L480.409 283.916C479.305 284.633 478.017 284.942 476.738 284.796C475.459 284.65 474.258 284.058 473.316 283.107L442.597 252.131C441.072 252.597 439.454 252.547 437.956 251.99C436.458 251.432 435.152 250.392 434.211 249.008C433.271 247.624 432.74 245.961 432.691 244.242C432.641 242.522 433.074 240.827 433.933 239.382C434.791 237.936 436.035 236.809 437.497 236.15C438.96 235.491 440.573 235.332 442.121 235.693C443.669 236.054 445.079 236.918 446.164 238.172C447.249 239.425 447.957 241.007 448.194 242.708V242.708Z" fill="#FFB8B8"/>
<path d="M479.191 264.802C479.324 264.301 479.555 263.836 479.869 263.441C480.183 263.046 480.571 262.729 481.008 262.511L496.26 254.919C498.32 253.462 500.827 252.952 503.232 253.5C505.637 254.049 507.744 255.611 509.091 257.845C510.437 260.078 510.914 262.801 510.416 265.416C509.918 268.03 508.486 270.324 506.434 271.793L493.825 283.906C493.465 284.252 493.04 284.509 492.581 284.661C492.121 284.812 491.637 284.854 491.161 284.784C490.685 284.714 490.228 284.533 489.822 284.254C489.417 283.975 489.071 283.604 488.809 283.167L479.6 267.794C479.337 267.356 479.165 266.863 479.094 266.346C479.024 265.83 479.057 265.303 479.191 264.802Z" fill="#8887AA"/>
<path d="M447.812 244.189L447.659 244.201L447.243 237.95C447.11 235.952 445.92 234.417 444.586 234.522L435.742 235.217C434.407 235.322 431.952 237.144 432.085 239.142L432.192 240.752L434.369 273.434C434.502 275.432 437.173 276.85 438.507 276.745L447.352 276.05C448.686 275.945 449.66 274.24 449.527 272.242L447.956 248.65L448.108 248.638L447.812 244.189Z" fill="#8887AA"/>
<path d="M446.73 238.015L449.011 272.257C449.11 273.749 448.383 275.022 447.386 275.101L438.5 275.799C437.503 275.878 436.615 274.732 436.515 273.239L434.235 238.998C434.136 237.506 434.863 236.232 435.859 236.154L436.937 236.069C436.863 236.374 436.879 236.697 436.984 236.991C437.088 237.285 437.276 237.535 437.52 237.706C437.622 237.759 437.736 237.783 437.849 237.775L442.916 237.377C443.389 237.339 443.735 236.734 443.687 236.024C443.677 235.861 443.644 235.7 443.592 235.546L444.746 235.455C445.743 235.377 446.631 236.523 446.73 238.015Z" fill="white"/>
<path d="M322.06 317.083L319.129 307.715L350.992 290.974L355.318 304.8L322.06 317.083Z" fill="#FFB8B8"/>
<path d="M314.45 322.559L304.999 292.353L305.35 292.223C306.772 291.698 308.274 291.483 309.772 291.589C311.269 291.695 312.733 292.12 314.08 292.84C315.426 293.561 316.629 294.563 317.619 295.788C318.609 297.014 319.367 298.439 319.85 299.983L319.851 299.984L325.623 318.432L314.45 322.559Z" fill="#2F2E41"/>
<path d="M448.52 323.768C441.686 324.185 434.872 322.635 428.766 319.275L391.299 291.583L347.551 309.183C346.389 309.613 345.121 309.547 344.003 309C342.884 308.453 341.998 307.465 341.524 306.236L339.38 300.633C338.891 299.372 338.877 297.954 339.341 296.682C339.805 295.411 340.709 294.388 341.86 293.834L383.657 273.441C388.675 271.001 394.304 270.472 399.633 271.939L457.657 288.004L472.994 307.793L472.824 308.048C465.295 319.334 456.364 323.152 448.52 323.768Z" fill="#2F2E41"/>
<path d="M495.908 241.077C505.984 241.077 514.153 232.203 514.153 221.255C514.153 210.308 505.984 201.433 495.908 201.433C485.832 201.433 477.664 210.308 477.664 221.255C477.664 232.203 485.832 241.077 495.908 241.077Z" fill="#FFB8B8"/>
<path d="M477.18 316.616L447.817 292.875L467.842 277.412C467.269 275.409 464.728 263.959 478.625 256.153C483.024 253.683 486.193 251.557 488.045 249.833C490.672 247.371 494.037 246.037 497.507 246.083C499.694 246.121 501.843 246.711 503.783 247.807C505.724 248.903 507.403 250.475 508.688 252.398C509.973 254.321 510.829 256.542 511.187 258.887C511.545 261.231 511.396 263.634 510.752 265.905C507.854 276.138 503.239 289.699 497.704 296.184C491.444 303.511 484.655 310.283 477.402 316.435L477.18 316.616Z" fill="#8887AA"/>
<path d="M326.716 325.384L323.785 316.016L355.648 299.275L359.974 313.101L326.716 325.384Z" fill="#FFB8B8"/>
<path d="M319.106 330.86L309.655 300.655L310.006 300.525C311.427 300 312.93 299.784 314.428 299.89C315.925 299.996 317.389 300.421 318.736 301.142C320.082 301.862 321.285 302.864 322.275 304.09C323.265 305.315 324.023 306.74 324.506 308.284L324.507 308.285L330.279 326.734L319.106 330.86Z" fill="#2F2E41"/>
<path d="M453.176 332.069C446.342 332.486 439.528 330.936 433.422 327.576L395.955 299.883L352.207 317.484C351.045 317.913 349.777 317.848 348.659 317.301C347.54 316.754 346.654 315.766 346.18 314.537L344.036 308.933C343.547 307.673 343.533 306.254 343.997 304.983C344.461 303.711 345.365 302.688 346.516 302.134L388.313 281.742C393.331 279.302 398.96 278.773 404.289 280.24L462.313 296.305L477.65 316.094L477.48 316.349C469.951 327.635 461.02 331.453 453.176 332.069Z" fill="#2F2E41"/>
<path d="M444.755 266.486C444.982 266.859 445.182 267.25 445.353 267.656L481.715 274.072L487.386 266.55L498.954 274.364L490.106 288.741C489.391 289.902 488.349 290.781 487.136 291.244C485.923 291.707 484.604 291.73 483.378 291.31L443.409 277.605C442.215 278.736 440.733 279.444 439.16 279.637C437.586 279.829 435.996 279.497 434.601 278.684C433.205 277.87 432.071 276.615 431.348 275.084C430.626 273.553 430.349 271.82 430.556 270.114C430.762 268.408 431.441 266.811 432.504 265.536C433.566 264.26 434.96 263.365 436.502 262.972C438.043 262.578 439.658 262.703 441.133 263.331C442.607 263.959 443.87 265.059 444.755 266.486Z" fill="#FFB8B8"/>
<path d="M481.473 272.034C481.396 271.519 481.422 270.992 481.55 270.488C481.678 269.985 481.904 269.518 482.213 269.118L493.004 255.162C494.291 252.887 496.356 251.26 498.746 250.637C501.136 250.014 503.655 250.446 505.752 251.838C507.85 253.23 509.353 255.469 509.933 258.063C510.514 260.658 510.123 263.397 508.848 265.679L502.226 282.491C502.037 282.971 501.756 283.401 501.4 283.752C501.044 284.103 500.623 284.366 500.165 284.524C499.707 284.682 499.224 284.731 498.747 284.667C498.27 284.604 497.811 284.429 497.402 284.156L483.022 274.547C482.612 274.274 482.262 273.908 481.995 273.474C481.728 273.04 481.55 272.549 481.473 272.034Z" fill="#8887AA"/>
<path d="M491.031 243.085C496.332 235.675 499.272 226.592 499.407 217.208C496.911 219.223 494.087 220.705 491.083 221.576C487.895 222.499 484.39 222.684 481.388 221.198C477.162 219.107 474.663 213.774 475.142 208.756C475.622 203.738 478.814 199.255 482.97 197.005C487.224 194.844 492.076 194.524 496.539 196.113C498.9 193.928 501.791 192.529 504.865 192.083C507.939 191.638 511.066 192.164 513.872 193.599C520.33 197.043 523.902 205.018 524.521 212.804C525.14 220.591 523.299 228.333 521.473 235.893L521.267 236.748C520.699 239.101 519.047 243.617 519.047 243.617C519.047 243.617 509.452 241.56 505.641 240.241C500.116 242.411 491.031 243.085 491.031 243.085Z" fill="#2F2E41"/>
<path d="M445.296 244.985L437.479 245.6C437.282 245.615 437.088 245.545 436.939 245.405C436.79 245.265 436.699 245.067 436.684 244.853C436.67 244.64 436.735 244.429 436.864 244.267C436.992 244.105 437.175 244.005 437.372 243.99L445.189 243.375C445.286 243.367 445.384 243.38 445.477 243.414C445.57 243.447 445.656 243.5 445.73 243.569C445.804 243.638 445.864 243.723 445.908 243.818C445.952 243.913 445.978 244.016 445.985 244.122C445.992 244.228 445.98 244.334 445.949 244.435C445.918 244.535 445.87 244.629 445.806 244.709C445.742 244.789 445.664 244.855 445.576 244.902C445.489 244.949 445.394 244.978 445.296 244.985Z" fill="#8887AA"/>
<path d="M445.564 249.01L437.747 249.625C437.65 249.632 437.552 249.619 437.459 249.586C437.366 249.553 437.28 249.5 437.206 249.431C437.132 249.361 437.072 249.277 437.028 249.182C436.984 249.087 436.958 248.984 436.951 248.878C436.944 248.772 436.956 248.666 436.987 248.565C437.018 248.464 437.067 248.371 437.131 248.291C437.195 248.211 437.272 248.145 437.36 248.098C437.447 248.05 437.542 248.022 437.64 248.015L445.457 247.4C445.654 247.385 445.848 247.455 445.997 247.595C446.146 247.735 446.237 247.933 446.252 248.147C446.266 248.36 446.201 248.571 446.073 248.733C445.944 248.895 445.761 248.995 445.564 249.01Z" fill="#8887AA"/>
<path d="M445.832 253.035L438.015 253.649C437.819 253.664 437.625 253.594 437.476 253.454C437.328 253.314 437.236 253.116 437.222 252.903C437.208 252.689 437.272 252.479 437.401 252.317C437.529 252.155 437.712 252.055 437.908 252.04L445.725 251.425C445.922 251.41 446.116 251.479 446.265 251.62C446.414 251.76 446.505 251.958 446.52 252.172C446.534 252.385 446.469 252.596 446.341 252.758C446.212 252.92 446.029 253.019 445.832 253.035Z" fill="#8887AA"/>
<path d="M672.257 412H0.742826C0.545816 412 0.356875 411.915 0.217568 411.763C0.0782612 411.612 0 411.407 0 411.193C0 410.979 0.0782612 410.773 0.217568 410.622C0.356875 410.471 0.545816 410.386 0.742826 410.386H672.257C672.454 410.386 672.643 410.471 672.782 410.622C672.922 410.773 673 410.979 673 411.193C673 411.407 672.922 411.612 672.782 411.763C672.643 411.915 672.454 412 672.257 412Z" fill="#8887AA"/>
<path d="M357.135 143.252H282.11C280.338 143.249 278.638 142.484 277.385 141.122C276.132 139.76 275.427 137.914 275.425 135.988V65.7747C275.427 63.849 276.132 62.0028 277.385 60.6411C278.638 59.2794 280.338 58.5134 282.11 58.5112H357.135C358.908 58.5134 360.607 59.2794 361.86 60.6411C363.114 62.0028 363.819 63.849 363.821 65.7747V135.988C363.819 137.914 363.114 139.76 361.86 141.122C360.607 142.483 358.908 143.249 357.135 143.252ZM282.11 60.1253C280.731 60.127 279.41 60.7228 278.435 61.7818C277.46 62.8409 276.912 64.2769 276.91 65.7747V135.988C276.912 137.486 277.46 138.922 278.435 139.981C279.41 141.04 280.731 141.636 282.11 141.638H357.135C358.514 141.636 359.836 141.04 360.81 139.981C361.785 138.922 362.334 137.486 362.335 135.988V65.7747C362.334 64.2769 361.785 62.8409 360.81 61.7818C359.836 60.7228 358.514 60.127 357.135 60.1253H282.11Z" fill="#F2F2F2"/>
<path d="M346.166 132.356H293.079C291.405 132.354 289.8 131.631 288.617 130.345C287.433 129.059 286.767 127.315 286.765 125.496V76.2662C286.767 74.4475 287.433 72.7038 288.617 71.4177C289.8 70.1317 291.405 69.4083 293.079 69.4062H346.166C347.84 69.4083 349.445 70.1317 350.629 71.4177C351.812 72.7038 352.478 74.4475 352.48 76.2662V125.496C352.478 127.315 351.812 129.059 350.629 130.345C349.445 131.631 347.84 132.354 346.166 132.356Z" fill="#E6E6E6"/>
<path d="M319.994 48.0197C322.045 48.0197 323.708 46.2131 323.708 43.9845C323.708 41.7559 322.045 39.9492 319.994 39.9492C317.943 39.9492 316.28 41.7559 316.28 43.9845C316.28 46.2131 317.943 48.0197 319.994 48.0197Z" fill="#F2F2F2"/>
<path d="M327.803 59.733L319.996 45.5588L312.233 59.7306L310.956 58.9058L319.992 42.4097L329.078 58.9034L327.803 59.733Z" fill="#F2F2F2"/>
<path d="M328.537 95.2323C328.535 94.0109 328.411 92.7932 328.168 91.6006H317.023C316.235 91.6006 315.479 91.9407 314.922 92.5461C314.365 93.1515 314.051 93.9726 314.051 94.8288V112.119C317.984 111.816 321.664 109.905 324.352 106.772C327.04 103.639 328.535 99.5154 328.537 95.2323Z" fill="#8887AA"/>
<path d="M312.937 112.987C309.855 112.989 306.835 112.043 304.226 110.259C301.618 108.475 299.527 105.926 298.195 102.906C296.862 99.8863 296.343 96.5187 296.697 93.1921C297.052 89.8654 298.265 86.7155 300.196 84.1058C302.128 81.496 304.699 79.533 307.614 78.4433C310.528 77.3536 313.667 77.1817 316.668 77.9473C319.668 78.713 322.409 80.385 324.572 82.7704C326.735 85.1558 328.234 88.1572 328.894 91.4283L329.091 92.4075H317.023C316.432 92.4082 315.865 92.6636 315.448 93.1175C315.03 93.5714 314.795 94.1868 314.794 94.8287V112.871L313.975 112.934C313.631 112.961 313.287 112.987 312.937 112.987ZM312.937 79.0912C308.997 79.0912 305.218 80.7917 302.432 83.8188C299.646 86.8458 298.081 90.9513 298.081 95.2322C298.081 99.5131 299.646 103.619 302.432 106.646C305.218 109.673 308.997 111.373 312.937 111.373C313.062 111.373 313.185 111.369 313.309 111.363V94.8287C313.31 93.7588 313.701 92.7332 314.398 91.9767C315.094 91.2202 316.038 90.7947 317.023 90.7934H327.215C326.316 87.4306 324.439 84.474 321.866 82.365C319.293 80.256 316.161 79.1076 312.937 79.0912Z" fill="white"/>
<path d="M334.851 118.233H317.023C316.038 118.232 315.094 117.806 314.398 117.05C313.701 116.293 313.31 115.268 313.309 114.198V111.367L313.999 111.314C316.126 111.155 318.195 110.498 320.067 109.39C321.939 108.282 323.569 106.748 324.845 104.893C326.121 103.038 327.014 100.905 327.462 98.6412C327.911 96.3769 327.904 94.0343 327.443 91.7731L327.246 90.7935H334.851C335.835 90.7947 336.779 91.2202 337.476 91.9767C338.172 92.7332 338.564 93.7589 338.565 94.8287V114.198C338.564 115.268 338.172 116.293 337.476 117.05C336.779 117.806 335.835 118.232 334.851 118.233ZM314.794 112.855V114.198C314.795 114.84 315.03 115.455 315.448 115.909C315.865 116.363 316.432 116.618 317.023 116.619H334.851C335.441 116.618 336.008 116.363 336.426 115.909C336.843 115.455 337.078 114.84 337.079 114.198V94.8287C337.078 94.1868 336.843 93.5714 336.426 93.1175C336.008 92.6636 335.441 92.4083 334.851 92.4076H329.066C329.207 93.3414 329.278 94.286 329.279 95.2322C329.266 99.5858 327.784 103.783 325.115 107.03C322.446 110.278 318.774 112.35 314.794 112.855Z" fill="white"/>
</g>
<defs>
<clipPath id="clip0">
<rect width="673" height="412" fill="white"/>
</clipPath>
</defs>
</svg>
